<?xml version="1.0" standalone="no"?>
<!DOCTYPE svg PUBLIC "-//W3C//DTD SVG 20010904//EN"
 "http://www.w3.org/TR/2001/REC-SVG-20010904/DTD/svg10.dtd">
<svg version="1.0" xmlns="http://www.w3.org/2000/svg"
 width="1104.000000pt" height="1280.000000pt" viewBox="0 0 1104.000000 1280.000000"
 preserveAspectRatio="xMidYMid meet">
<metadata>
Created by potrace 1.15, written by Peter Selinger 2001-2017
</metadata>
<g transform="translate(0.000000,1280.000000) scale(0.100000,-0.100000)"
fill="#000000" stroke="none">
<path d="M3131 9219 c-9 -10 -31 -62 -49 -116 -18 -54 -35 -103 -40 -109 -4
-6 -81 -21 -172 -33 -228 -32 -456 -78 -509 -103 -86 -41 -268 -249 -385 -438
-79 -126 -204 -381 -446 -905 -303 -657 -361 -767 -426 -810 -36 -23 -101 -20
-115 6 -6 12 -15 97 -19 188 -4 91 -11 175 -15 186 -17 44 -57 74 -114 86
-126 26 -682 -37 -757 -86 -43 -28 -71 -180 -81 -440 -7 -196 4 -264 51 -311
45 -45 85 -53 306 -65 107 -5 231 -14 275 -19 101 -12 235 -42 235 -52 0 -4
-14 -58 -30 -120 -79 -293 -123 -379 -299 -581 -73 -84 -89 -127 -101 -277
-13 -161 -21 -631 -11 -600 5 14 10 43 10 65 1 43 14 74 25 57 26 -43 71 -332
121 -777 42 -376 55 -437 102 -484 l34 -34 87 9 c48 4 120 9 160 9 72 0 73 -1
105 -37 18 -21 46 -43 62 -49 39 -14 390 -28 725 -29 352 0 424 -13 464 -80
28 -48 21 -68 -26 -82 -64 -19 -1178 -19 -1263 1 -62 14 -76 25 -159 126 -45
53 -102 84 -159 85 -95 0 -126 54 -162 275 -8 55 -33 231 -54 390 l-38 290 -6
-340 c-6 -315 -16 -483 -49 -805 -16 -168 -17 -1854 0 -2160 26 -458 81 -767
156 -865 54 -70 219 -128 460 -162 169 -24 723 -24 955 0 274 29 341 49 397
122 78 103 102 259 129 860 16 332 26 448 43 495 l9 24 2963 0 2962 1 9 -24
c18 -47 28 -162 44 -496 27 -601 51 -757 129 -860 56 -73 123 -93 397 -122
232 -24 786 -24 955 0 241 34 406 92 460 162 75 98 130 407 156 865 17 306 16
1992 0 2160 -33 322 -43 490 -49 805 l-6 340 -38 -290 c-21 -159 -46 -335 -54
-390 -36 -221 -67 -275 -162 -275 -57 -1 -114 -32 -159 -85 -83 -101 -97 -112
-159 -126 -85 -20 -1199 -20 -1262 -1 -48 14 -55 34 -27 82 40 67 112 80 464
80 335 1 686 15 725 29 17 6 44 28 62 49 32 36 33 37 105 37 40 0 112 -5 160
-9 l87 -9 34 34 c47 47 60 108 102 484 50 445 95 734 121 777 11 17 24 -14 25
-57 0 -22 5 -51 10 -65 10 -31 2 439 -11 600 -12 150 -28 193 -101 277 -176
202 -220 288 -299 581 -16 62 -30 116 -30 120 0 10 134 40 235 52 44 5 168 14
275 19 221 12 261 20 306 65 47 47 58 115 51 311 -10 260 -38 412 -81 440 -75
49 -631 112 -757 86 -57 -12 -97 -42 -114 -86 -4 -11 -11 -95 -15 -186 -4 -91
-13 -176 -19 -188 -9 -16 -21 -21 -52 -21 -102 0 -130 47 -489 825 -242 524
-367 779 -446 905 -117 189 -299 397 -385 438 -53 25 -281 71 -509 103 -91 12
-168 27 -172 33 -5 6 -22 55 -40 109 -18 54 -40 106 -49 116 -21 22 -137 29
-150 9 -5 -7 -9 -50 -9 -95 0 -109 -2 -113 -53 -108 -130 14 -745 48 -1272 70
-792 33 -1834 14 -2880 -55 -88 -6 -179 -12 -202 -15 -51 -5 -53 -1 -53 108 0
45 -4 88 -9 95 -13 20 -129 13 -150 -9z m2914 -239 c1152 -23 1980 -98 2441
-220 193 -51 217 -64 273 -139 313 -427 637 -1073 922 -1840 38 -102 67 -186
65 -188 -3 -3 -61 3 -381 41 -1012 120 -2343 208 -3407 224 -979 15 -2031 -22
-3148 -113 -352 -29 -866 -79 -1135 -111 -320 -38 -378 -44 -381 -41 -3 3 105
298 170 463 189 483 485 1072 697 1391 143 215 163 238 226 262 378 145 1331
246 2533 270 561 11 616 11 1125 1z m-5301 -1850 c38 -6 88 -19 112 -29 38
-17 44 -25 58 -72 9 -29 16 -75 16 -103 0 -94 -37 -369 -71 -525 l-11 -51 -51
0 c-73 0 -680 30 -693 34 -13 5 -34 304 -34 492 0 159 -1 157 82 193 49 21
213 58 283 64 88 8 244 6 309 -3z m9999 -20 c104 -23 180 -51 210 -77 15 -14
17 -36 17 -157 0 -188 -21 -487 -34 -492 -13 -4 -620 -34 -693 -34 l-51 0 -11
51 c-34 156 -71 431 -71 525 0 28 7 74 16 103 14 47 20 55 59 72 67 30 145 38
310 34 104 -2 180 -10 248 -25z m-4558 -315 c698 -15 1217 -30 1365 -40 41 -3
152 -10 245 -15 309 -19 890 -92 1020 -128 63 -18 0 -23 -148 -12 -159 11
-175 12 -637 60 -527 54 -873 69 -1842 78 -1078 11 -2254 -6 -2743 -39 -82 -5
-278 -23 -435 -39 -462 -48 -478 -49 -637 -60 -148 -11 -211 -6 -148 12 76 21
482 79 755 107 320 34 928 58 2025 80 204 4 393 9 420 9 28 1 370 -5 760 -13z
m390 -116 c1220 -34 2162 -125 2838 -275 228 -50 443 -116 536 -163 35 -18 39
-25 50 -81 7 -34 10 -64 8 -66 -2 -3 -139 9 -303 25 -522 53 -918 87 -1404
121 -487 35 -579 40 -1240 75 -362 19 -1054 35 -1540 35 -486 0 -1178 -16
-1540 -35 -661 -35 -753 -40 -1240 -75 -486 -34 -882 -68 -1404 -121 -164 -16
-301 -28 -303 -25 -2 2 1 32 8 66 11 56 15 63 50 81 22 11 69 30 107 44 514
184 1509 321 2722 375 129 5 296 13 370 16 442 21 1589 23 2285 3z m935 -478
c565 -14 838 -34 920 -67 53 -22 79 -86 45 -114 -16 -14 -56 -13 -575 9 -434
19 -1398 32 -2380 32 -982 0 -1946 -13 -2380 -32 -519 -22 -559 -23 -575 -9
-18 15 -19 40 -4 73 21 47 79 61 335 81 172 14 844 33 1434 40 480 6 2789 -4
3180 -13z m-5035 -63 c2 -13 41 -225 85 -473 110 -612 224 -1238 260 -1425 16
-85 30 -163 30 -172 0 -17 -19 -18 -266 -18 l-266 0 -57 -34 -56 -33 -559 -6
c-307 -3 -561 -9 -564 -12 -4 -3 -11 -93 -17 -200 -5 -106 -12 -195 -15 -198
-3 -3 -82 -7 -177 -9 l-172 -4 -6 40 c-3 23 -21 160 -40 306 -19 146 -64 426
-100 622 l-65 357 0 229 0 228 126 160 c70 87 131 165 136 171 6 7 34 99 63
205 30 106 54 186 54 177 1 -8 -8 -103 -18 -210 -11 -107 -34 -338 -51 -514
-17 -176 -39 -403 -50 -505 -10 -101 -18 -186 -16 -187 1 -2 408 -6 904 -10
884 -6 901 -6 897 13 -6 24 -245 1404 -245 1411 0 3 -42 3 -92 0 -95 -7 -596
-39 -953 -61 -110 -7 -203 -10 -207 -7 -3 3 -8 17 -10 31 l-3 25 190 17 c105
9 240 21 300 27 194 19 788 71 850 74 33 2 70 4 82 5 16 1 24 -5 28 -20z
m6600 -19 c187 -16 390 -34 450 -40 61 -6 196 -18 300 -27 l190 -17 -3 -25
c-2 -14 -7 -28 -10 -31 -4 -3 -97 0 -207 7 -357 22 -858 54 -952 61 -51 3 -93
3 -93 0 0 -7 -239 -1387 -245 -1411 -4 -19 13 -19 897 -13 496 4 903 8 904 10
2 1 -6 86 -16 187 -11 102 -33 329 -50 505 -17 176 -40 407 -51 514 -10 107
-19 202 -18 210 0 9 24 -71 54 -177 29 -106 57 -198 63 -205 5 -6 66 -84 136
-171 l126 -160 0 -228 0 -229 -65 -357 c-36 -196 -81 -476 -100 -622 -19 -146
-37 -283 -40 -306 l-6 -40 -172 4 c-95 2 -174 6 -177 9 -3 3 -10 92 -15 198
-6 107 -13 197 -17 200 -3 3 -257 9 -564 12 l-559 6 -56 33 -57 34 -266 0
c-247 0 -266 1 -266 18 0 9 14 87 30 172 36 187 150 813 260 1425 44 248 83
460 85 472 6 27 -9 27 510 -18z m-6848 -125 c30 -6 31 -8 47 -102 9 -54 27
-158 40 -232 86 -477 116 -650 116 -663 0 -8 -7 -14 -16 -13 -10 0 -26 -17
-41 -44 -56 -105 -153 -170 -254 -170 -74 0 -132 21 -200 74 l-55 43 -465 7
c-255 4 -466 9 -468 11 -6 7 53 928 64 991 6 38 10 39 210 59 315 31 940 55
1022 39z m7294 -14 c197 -13 366 -28 451 -41 65 -10 68 -12 73 -42 11 -63 70
-985 64 -992 -2 -2 -213 -7 -468 -11 l-465 -7 -55 -43 c-68 -53 -126 -74 -200
-74 -101 0 -198 65 -254 170 -15 27 -31 44 -41 44 -9 -1 -16 5 -16 13 0 13 30
186 116 663 13 74 31 179 40 232 15 83 20 98 38 102 31 7 541 -3 717 -14z
m-6208 -190 c24 -96 70 -260 101 -365 32 -104 71 -235 87 -290 65 -223 118
-316 187 -334 51 -13 240 -28 537 -43 341 -17 2249 -17 2590 0 297 15 486 30
537 43 69 18 122 111 187 334 16 55 55 186 87 290 31 105 77 270 103 369 l46
178 162 -1 c89 -1 233 -6 320 -11 87 -5 170 -10 186 -10 26 0 27 -2 27 -48 0
-101 -122 -767 -266 -1452 -98 -463 -168 -752 -200 -817 -32 -67 -130 -168
-186 -193 -55 -24 -136 -37 -322 -50 -628 -44 -3324 -44 -3952 0 -186 13 -267
26 -322 50 -56 25 -154 126 -186 193 -32 65 -102 354 -200 817 -143 682 -266
1351 -266 1451 l0 47 113 7 c156 11 571 21 579 15 4 -3 27 -84 51 -180z m106
50 c15 -12 58 -26 97 -32 98 -16 3910 -16 4008 0 39 6 82 20 97 32 16 11 31
20 34 20 18 0 -3 -190 -32 -290 -67 -229 -177 -552 -202 -592 -27 -42 -35 -47
-83 -57 -169 -33 -812 -52 -1818 -52 -1006 0 -1649 19 -1818 52 -48 10 -56 15
-83 57 -25 40 -135 363 -202 592 -29 100 -50 290 -32 290 3 0 18 -9 34 -20z
m-2489 -295 c0 -88 -20 -602 -25 -646 l-5 -46 486 -7 485 -7 45 -35 c88 -67
238 -83 329 -36 41 21 99 77 128 124 19 30 56 46 67 28 4 -6 15 -55 24 -108
10 -53 20 -107 23 -119 l5 -23 -851 0 -851 0 0 36 c0 20 9 170 20 333 22 313
50 519 76 560 16 23 17 24 30 6 8 -10 14 -38 14 -60z m9240 16 c22 -84 41
-244 60 -522 11 -163 20 -313 20 -333 l0 -36 -851 0 -851 0 5 23 c3 12 13 66
23 119 9 53 20 102 24 108 11 18 48 2 67 -28 29 -47 87 -103 128 -124 91 -47
241 -31 329 36 l45 35 486 7 487 7 -6 31 c-3 17 -10 180 -17 362 -8 253 -8
337 1 353 15 29 36 13 50 -38z m-7256 -1688 c36 -151 68 -231 123 -316 74
-112 186 -188 318 -218 89 -21 4241 -21 4330 0 132 30 244 106 318 218 55 85
87 165 123 316 l29 119 270 -4 c337 -5 372 -16 286 -90 -21 -18 -45 -47 -54
-63 -8 -17 -76 -208 -150 -425 -138 -404 -180 -519 -204 -557 -31 -48 -246
-70 -968 -95 -479 -17 -3151 -17 -3630 0 -722 25 -937 47 -968 95 -24 38 -66
153 -204 557 -74 217 -142 408 -150 425 -9 16 -33 45 -54 63 -46 40 -49 56
-11 70 42 17 70 19 327 21 l241 1 28 -117z m-788 44 c7 -7 28 -168 44 -344 11
-121 6 -200 -11 -158 -4 11 -8 35 -8 53 -1 47 -32 56 -148 43 -114 -14 -213
-14 -233 -1 -13 9 -12 12 4 25 11 8 29 15 40 16 12 0 53 2 91 3 136 5 188 53
194 178 3 71 1 79 -22 102 -13 13 -42 29 -63 35 -77 22 -274 32 -564 29 l-295
-3 -13 -195 c-13 -206 -15 -220 -32 -220 -7 0 -9 17 -6 48 3 26 8 127 12 226
l6 179 499 -5 c274 -2 501 -7 505 -11z m7798 -164 c4 -98 9 -199 12 -225 3
-31 1 -48 -6 -48 -17 0 -19 14 -32 220 l-13 195 -295 3 c-290 3 -487 -7 -564
-29 -21 -6 -50 -22 -63 -35 -23 -23 -25 -31 -22 -102 6 -125 58 -173 194 -178
39 -1 79 -3 91 -3 11 -1 29 -8 40 -16 16 -13 17 -16 4 -25 -20 -13 -119 -13
-233 1 -116 13 -147 4 -148 -43 0 -18 -4 -42 -8 -53 -7 -17 -9 -16 -15 10 -7
29 -5 59 20 300 23 216 9 194 122 198 53 1 280 4 503 5 l407 2 6 -177z m-8450
78 c3 -5 39 -21 81 -36 96 -35 177 -33 255 8 52 27 74 31 47 9 -7 -6 -75 -38
-151 -71 l-138 -60 -40 30 c-49 35 -52 35 -97 5 -24 -15 -64 -27 -119 -35 -46
-7 -86 -11 -88 -9 -2 3 28 14 67 27 39 12 72 28 74 34 2 7 6 24 9 40 4 15 15
36 26 47 21 21 65 27 74 11z m8166 -11 c11 -11 22 -32 26 -47 3 -16 7 -33 9
-40 2 -6 35 -22 74 -34 39 -13 69 -24 67 -27 -2 -2 -42 2 -88 9 -55 8 -95 20
-119 35 -45 30 -48 30 -97 -5 l-40 -30 -138 60 c-76 33 -144 65 -151 71 -27
22 -5 18 47 -9 78 -41 159 -43 255 -8 42 15 78 31 81 36 9 16 53 10 74 -11z
m-7672 -165 c-3 -3 -55 -19 -114 -35 -154 -40 -164 -45 -164 -75 0 -36 -32
-45 -163 -45 -128 0 -151 8 -123 39 36 39 114 83 143 79 22 -2 29 -10 38 -41
l11 -39 26 33 c25 33 29 34 179 60 186 32 174 30 167 24z m7276 -26 c146 -23
149 -24 174 -57 l26 -34 11 38 c9 32 16 40 38 42 29 4 107 -40 143 -79 28 -31
5 -39 -123 -39 -131 0 -163 9 -163 45 0 30 -10 35 -164 75 -59 16 -111 32
-115 36 -3 4 1 5 9 2 8 -3 82 -16 164 -29z m-7957 -110 c26 -10 27 -12 8 -19
-28 -12 -67 -12 -85 0 -13 9 -13 11 0 20 20 13 42 12 77 -1z m8543 1 c34 -22
-39 -39 -85 -20 -19 8 -19 8 5 18 32 14 61 14 80 2z m-8964 -377 l87 -103 754
-2 755 -3 94 -175 93 -175 138 -12 c590 -49 1007 -58 2733 -58 1726 0 2143 9
2733 58 l138 12 93 175 94 175 755 3 754 2 87 103 86 103 80 21 c58 15 80 18
80 9 0 -34 -82 -325 -140 -496 -115 -341 -295 -644 -436 -731 -38 -23 -130
-44 -269 -59 -397 -43 -1699 -65 -3103 -51 -584 6 -1320 6 -1905 0 -1403 -14
-2705 8 -3102 51 -139 15 -231 36 -269 59 -141 87 -321 390 -436 731 -58 171
-140 462 -140 496 0 9 22 6 80 -9 l80 -21 86 -103z"/>
<path d="M1550 5955 c-300 -42 -460 -164 -501 -381 -14 -73 -5 -269 15 -341
47 -172 147 -265 331 -309 91 -21 307 -24 393 -5 l64 14 -9 56 c-29 194 28
313 162 341 50 10 127 8 177 -6 58 -17 28 309 -42 446 -86 169 -276 228 -590
185z m342 -26 c74 -16 117 -40 165 -92 43 -47 75 -101 99 -171 16 -44 47 -283
39 -297 -3 -4 -52 -5 -109 -2 -100 6 -106 5 -149 -20 -50 -30 -101 -99 -119
-161 -15 -53 -15 -175 1 -204 18 -33 2 -36 -204 -36 -192 -1 -228 5 -335 60
-131 66 -214 230 -214 424 -1 197 57 321 191 406 62 40 175 80 263 92 94 14
310 14 372 1z"/>
<path d="M1497 5842 c2 -15 7 -82 11 -149 8 -141 13 -141 -89 -13 -35 43 -65
77 -66 76 -2 -2 21 -43 51 -93 88 -148 91 -141 -33 -78 -61 30 -111 53 -111
51 0 -2 51 -37 113 -78 l112 -73 -95 -6 -95 -5 95 -2 96 -2 13 35 c14 41 43
59 77 51 20 -5 25 -2 30 21 3 16 17 72 31 127 13 54 23 100 21 102 -2 1 -21
-47 -42 -107 -21 -60 -40 -108 -42 -107 -1 2 -18 63 -37 136 -34 131 -47 168
-40 114z"/>
<path d="M1702 5641 c-80 -75 -100 -99 -92 -111 31 -47 -3 -130 -53 -130 -25
0 -57 28 -57 48 0 7 -3 12 -8 12 -4 0 -61 -38 -126 -85 -66 -47 -117 -85 -113
-85 3 0 58 25 123 55 65 30 120 52 122 51 2 -2 -22 -55 -52 -117 -31 -62 -55
-114 -53 -116 2 -2 35 47 73 107 l69 110 7 -42 c3 -24 8 -83 9 -133 3 -86 3
-84 9 40 l5 130 68 -130 c37 -71 65 -121 62 -111 -31 103 -74 260 -72 262 2 2
50 -33 107 -78 l105 -80 -100 101 c-55 55 -93 101 -85 101 8 0 58 -7 110 -15
52 -8 111 -17 130 -20 19 -2 -23 15 -95 39 l-130 43 118 57 c64 31 117 58 117
61 0 2 -57 -17 -126 -41 -70 -25 -130 -43 -135 -42 -4 2 33 49 83 106 49 57
88 105 86 107 -1 1 -49 -40 -106 -94z"/>
<path d="M2055 5269 c-45 -12 -110 -72 -134 -122 -49 -101 -14 -237 77 -299
36 -25 60 -33 105 -36 110 -8 196 50 232 158 58 175 -106 350 -280 299z m160
-62 c45 -26 80 -73 95 -128 32 -118 -96 -258 -213 -234 -75 16 -138 81 -151
158 -8 44 14 130 43 164 55 65 151 82 226 40z"/>
<path d="M2108 5132 l4 -57 -22 30 c-38 49 -45 53 -22 12 28 -49 28 -51 -9
-32 -45 24 -44 13 1 -15 22 -14 40 -28 40 -31 0 -4 -18 -18 -40 -33 -22 -14
-40 -28 -40 -31 0 -6 51 16 65 27 22 19 25 5 6 -28 -27 -46 -21 -56 8 -12 20
32 21 32 22 8 l1 -25 7 25 c7 24 9 22 29 -22 28 -65 35 -61 12 7 -10 30 -16
55 -13 55 4 0 21 -12 37 -27 27 -24 26 -22 -4 11 -27 30 -31 37 -15 33 11 -3
38 -8 60 -11 39 -5 38 -4 -10 11 l-49 15 44 24 c53 27 49 30 -10 9 -59 -21
-59 -20 -15 27 l40 42 -44 -34 c-39 -30 -43 -31 -37 -12 15 55 14 64 -3 27
l-18 -40 -8 48 c-10 67 -22 67 -17 -1z"/>
<path d="M9153 5954 c-202 -44 -289 -171 -322 -466 -12 -108 -2 -172 27 -164
50 14 127 16 177 6 134 -28 191 -147 162 -341 l-9 -56 64 -14 c86 -19 302 -16
393 5 184 44 284 137 331 309 20 72 29 268 15 341 -41 220 -201 340 -511 381
-129 18 -245 17 -327 -1z m449 -43 c259 -68 374 -216 372 -481 -1 -102 -27
-213 -66 -280 -33 -55 -99 -120 -148 -144 -107 -55 -143 -61 -335 -60 -206 0
-222 3 -204 36 16 29 16 151 1 204 -18 62 -69 131 -119 161 -43 25 -49 26
-149 20 -57 -3 -106 -2 -109 2 -8 14 23 253 39 297 24 70 56 124 99 171 81 88
142 104 372 99 130 -3 188 -9 247 -25z"/>
<path d="M9536 5858 c-2 -7 -19 -70 -36 -141 -18 -70 -34 -126 -36 -124 -2 1
-21 52 -43 112 -22 61 -40 106 -40 102 -1 -5 10 -52 23 -105 13 -53 27 -109
30 -125 5 -23 10 -26 30 -21 34 8 63 -10 77 -51 l13 -35 96 2 95 2 -95 5 -95
6 113 73 c61 41 112 76 112 78 0 2 -50 -21 -111 -51 -124 -63 -121 -70 -33 78
30 50 53 91 51 93 -1 1 -31 -33 -66 -76 -102 -128 -97 -128 -89 13 4 67 9 134
11 150 4 28 -1 37 -7 15z"/>
<path d="M9230 5735 c0 -3 40 -52 89 -108 49 -56 86 -103 82 -105 -5 -1 -65
17 -135 42 -69 24 -126 43 -126 41 0 -3 53 -30 118 -61 l117 -57 -130 -43
c-71 -24 -114 -41 -95 -39 19 3 78 12 130 20 52 8 102 15 110 15 8 0 -30 -46
-85 -101 l-100 -101 105 80 c57 45 105 80 107 78 2 -2 -41 -159 -72 -262 -3
-10 25 40 62 111 l68 130 5 -130 c6 -124 6 -126 9 -40 1 50 6 109 9 133 l7 42
69 -110 c38 -60 71 -109 73 -107 2 2 -22 54 -53 116 -30 62 -54 115 -52 117 2
1 57 -21 122 -51 65 -30 120 -55 123 -55 4 0 -47 38 -113 85 -65 47 -122 85
-126 85 -5 0 -8 -6 -8 -13 0 -20 -33 -47 -58 -47 -50 0 -80 77 -52 129 8 16
-7 34 -95 116 -58 53 -105 94 -105 90z"/>
<path d="M8862 5271 c-121 -31 -198 -178 -157 -301 65 -197 321 -218 410 -35
24 47 27 64 23 124 -3 58 -9 78 -34 113 -59 85 -150 122 -242 99z m137 -62
c48 -29 69 -56 86 -116 34 -113 -30 -225 -142 -248 -117 -24 -245 116 -213
234 33 124 170 191 269 130z"/>
<path d="M8927 5183 c-3 -5 -8 -28 -12 -53 l-8 -45 -18 40 c-18 37 -18 28 -3
-27 6 -19 2 -18 -37 12 l-44 34 40 -42 c44 -47 44 -48 -15 -27 -59 21 -63 18
-10 -9 l44 -24 -49 -15 c-48 -15 -49 -16 -10 -11 22 3 49 8 60 11 16 4 12 -3
-15 -33 -30 -33 -31 -35 -4 -11 16 15 33 27 37 27 3 0 -3 -25 -13 -55 -23 -68
-16 -72 12 -7 20 44 22 46 29 22 l7 -25 1 25 c1 24 2 24 22 -8 29 -44 35 -34
8 12 -19 33 -16 47 7 28 13 -11 64 -33 64 -27 0 3 -18 17 -40 31 -22 15 -40
29 -40 33 0 3 18 17 40 31 45 28 46 39 1 15 -37 -19 -37 -17 -9 32 23 41 16
37 -22 -12 l-22 -30 4 58 c5 56 4 65 -5 50z"/>
<path d="M2739 5843 c-5 -37 49 -336 122 -683 56 -263 79 -357 94 -376 21 -30
259 -19 373 17 28 9 32 15 32 46 0 20 -16 108 -36 197 -44 193 -190 785 -195
790 -9 8 -389 17 -390 9z"/>
<path d="M8028 5843 l-117 -4 -10 -37 c-24 -86 -172 -696 -195 -803 -14 -64
-26 -132 -26 -152 0 -31 4 -37 33 -46 62 -20 159 -32 259 -33 120 -2 117 -4
147 120 54 228 176 841 183 922 l3 35 -80 1 c-44 0 -133 -1 -197 -3z"/>
<path d="M3072 3958 c5 -91 31 -168 89 -263 39 -65 116 -148 156 -168 88 -46
557 -58 2203 -58 1646 0 2115 12 2203 58 40 20 117 103 156 168 58 95 84 172
89 263 l5 82 -2453 0 -2453 0 5 -82z"/>
<path d="M3443 5734 c4 -10 14 -49 23 -86 20 -83 47 -113 115 -127 33 -7 289
-11 743 -11 l693 0 56 41 c127 90 243 122 447 122 204 0 320 -32 447 -122 l56
-41 693 0 c454 0 710 4 743 11 68 14 95 44 115 127 9 37 19 76 23 86 4 15 2
18 -13 12 -63 -25 -292 -28 -2064 -28 -1772 0 -2001 3 -2064 28 -15 6 -17 3
-13 -12z"/>
<path d="M5431 5618 c-264 -22 -393 -147 -244 -235 81 -47 173 -66 328 -67
155 0 242 16 328 62 212 114 -57 271 -412 240z m-2 -48 c36 1 77 1 91 1 14 0
55 0 91 -1 36 0 77 4 92 9 34 13 41 2 28 -46 -17 -59 -15 -65 18 -58 33 7 43
-7 30 -42 -7 -18 -16 -23 -44 -23 -40 0 -101 27 -129 59 -24 26 -36 27 -29 3
7 -29 -47 -49 -88 -32 -22 10 -29 18 -26 32 7 24 -5 23 -29 -3 -28 -32 -89
-59 -129 -59 -28 0 -37 5 -44 23 -13 35 -3 49 30 42 33 -7 35 -1 18 58 -13 48
-6 59 28 46 15 -5 56 -9 92 -9z"/>
<path d="M3502 5439 c3 -8 18 -52 33 -99 33 -101 52 -125 114 -140 118 -30
3624 -30 3742 0 62 15 81 39 114 140 15 47 30 91 33 99 4 11 1 13 -14 7 -58
-22 -228 -28 -844 -30 l-666 -1 -64 -42 c-36 -23 -81 -49 -100 -57 -158 -65
-502 -65 -660 0 -19 8 -64 34 -100 57 l-64 42 -666 1 c-616 2 -786 8 -844 30
-15 6 -18 4 -14 -7z"/>
<path d="M3610 5124 c0 -5 13 -31 28 -58 64 -117 48 -115 1059 -125 453 -4
1193 -4 1645 0 1016 10 996 8 1061 128 16 29 27 54 25 55 -1 2 -30 -1 -63 -6
-34 -5 -768 -11 -1665 -13 -1454 -4 -2024 2 -2073 21 -9 3 -17 2 -17 -2z"/>
<path d="M667 3223 c-7 -12 94 -312 169 -500 111 -280 222 -487 312 -582 49
-51 101 -66 321 -90 497 -56 986 -63 4051 -63 2648 0 3105 4 3670 32 247 13
537 44 611 66 88 26 160 115 272 340 114 226 318 776 296 798 -15 16 -88 -25
-134 -76 -24 -26 -59 -72 -79 -101 l-35 -54 -753 4 -753 5 -100 -184 -100
-183 -120 -7 c-1246 -70 -1527 -78 -2775 -78 -1248 0 -1529 8 -2775 78 l-120
7 -100 183 -100 184 -753 -5 -753 -4 -35 52 c-53 80 -112 144 -155 165 -41 22
-55 24 -62 13z"/>
</g>
</svg>
