<?xml version="1.0" standalone="no"?>
<!DOCTYPE svg PUBLIC "-//W3C//DTD SVG 20010904//EN"
 "http://www.w3.org/TR/2001/REC-SVG-20010904/DTD/svg10.dtd">
<svg version="1.0" xmlns="http://www.w3.org/2000/svg"
 width="1280.000000pt" height="1280.000000pt" viewBox="0 0 1280.000000 1280.000000"
 preserveAspectRatio="xMidYMid meet">
<metadata>
Created by potrace 1.15, written by Peter Selinger 2001-2017
</metadata>
<g transform="translate(0.000000,1280.000000) scale(0.100000,-0.100000)"
fill="#000000" stroke="none">
<path d="M5483 11863 l-73 -4 0 -179 0 -180 50 0 50 0 0 -510 c0 -280 -1 -510
-2 -511 -2 0 -75 -3 -163 -6 -88 -3 -161 -6 -162 -7 0 0 1 -58 4 -128 l6 -128
72 0 72 0 7 -927 c3 -511 9 -1096 12 -1301 l7 -373 -114 54 c-63 30 -228 110
-368 178 -197 95 -257 120 -270 112 -25 -16 -211 -354 -211 -385 0 -25 10 -33
113 -84 61 -31 113 -57 115 -59 1 -1 -110 -233 -247 -516 -137 -283 -256 -536
-265 -562 -9 -26 -16 -80 -16 -120 0 -59 5 -83 30 -135 38 -82 112 -155 198
-195 61 -29 76 -32 162 -32 87 0 101 3 170 35 41 19 94 50 117 68 24 17 47 32
52 32 5 0 12 -19 15 -43 15 -101 87 -200 175 -241 91 -42 293 -22 366 36 16
12 100 130 187 263 87 132 158 235 158 230 0 -6 -7 -94 -15 -195 -19 -227 -28
-481 -18 -496 19 -27 169 -88 293 -120 54 -14 108 -19 195 -18 132 0 198 18
282 76 77 52 73 21 66 499 l-6 427 39 7 c21 3 50 8 64 11 17 3 68 -16 159 -61
119 -57 137 -63 155 -52 29 20 191 396 179 416 -9 17 -161 95 -490 254 l-203
98 0 303 0 303 380 -5 c278 -4 383 -2 393 7 9 7 16 42 20 97 2 47 6 87 8 89 2
1 38 6 79 10 l75 6 216 -124 c264 -151 325 -194 418 -293 284 -304 517 -892
641 -1622 34 -194 37 -298 15 -428 -33 -193 -133 -450 -240 -615 -134 -209
-325 -407 -517 -537 l-47 -32 -164 0 -164 0 -7 52 c-3 29 -6 100 -6 157 l0
104 201 -5 c188 -5 203 -4 220 13 17 17 19 36 19 212 0 172 -2 196 -17 209
-15 13 -84 16 -449 22 -415 7 -431 6 -447 -12 -16 -18 -17 -32 -7 -168 5 -82
10 -166 10 -186 0 -60 26 -78 110 -78 l69 0 3 -156 c2 -99 -1 -158 -7 -160 -6
-3 -167 -3 -358 -2 l-349 3 2 181 c0 137 -2 183 -12 191 -20 17 -2568 29
-2598 13 -23 -12 -23 -12 -17 -196 l5 -184 -472 0 -472 0 -66 -67 c-81 -84
-92 -103 -73 -130 14 -19 30 -20 721 -26 389 -4 708 -8 710 -10 1 -1 9 -85 17
-186 9 -101 21 -189 27 -195 7 -7 81 -9 215 -7 l205 3 0 -44 c0 -23 7 -189 15
-367 11 -271 16 -327 30 -340 14 -14 80 -16 668 -12 358 2 661 7 673 11 28 11
34 45 34 196 0 68 4 124 8 124 23 0 199 -146 299 -247 l112 -113 -21 -48 c-11
-26 -49 -114 -83 -195 -35 -81 -70 -158 -78 -171 l-16 -23 -323 -6 c-511 -9
-1310 -77 -2663 -228 -899 -100 -1109 -127 -1122 -146 -20 -26 -18 -912 1
-939 14 -18 63 -19 2668 -31 3111 -13 4515 -16 4528 -8 16 10 19 62 25 531 5
398 4 464 -9 477 -9 9 -167 44 -410 92 l-396 77 0 28 c0 51 77 143 300 359
122 118 259 257 304 310 236 273 391 535 474 799 27 86 27 91 26 342 -1 149
-10 383 -23 565 -40 581 -153 1891 -181 2110 -51 391 -187 785 -384 1109 -372
610 -1020 1106 -1786 1367 l-145 49 0 158 0 157 -409 3 -409 2 6 298 c5 182
11 298 17 300 11 4 13 103 4 215 -7 75 -7 76 -37 79 l-29 3 1 425 c1 234 4
462 7 507 l7 81 53 -5 54 -6 0 185 0 185 -97 6 c-97 7 -791 6 -930 0z m821
-860 c-3 -274 -7 -499 -8 -500 0 -1 -157 -5 -348 -9 l-348 -7 0 507 0 506 356
0 355 0 -7 -497z m-156 -809 l202 -6 0 -299 0 -299 -80 0 c-67 0 -83 -3 -100
-20 -15 -15 -19 -29 -16 -53 3 -18 8 -50 11 -72 4 -22 14 -48 22 -57 15 -16
15 -20 0 -36 -22 -25 -24 -148 -2 -179 13 -18 13 -22 0 -33 -18 -15 -18 -62
-2 -110 9 -24 10 -50 4 -85 -5 -27 -7 -72 -4 -98 2 -26 0 -50 -4 -53 -5 -3 -9
-34 -9 -69 0 -54 3 -66 22 -79 15 -11 18 -19 11 -28 -15 -19 -25 -126 -13
-148 7 -13 6 -26 -5 -47 -19 -35 -19 -80 -1 -114 11 -22 11 -29 0 -44 -17 -23
-19 -156 -3 -172 8 -8 8 -17 0 -31 -18 -34 -14 -139 5 -150 15 -8 14 -12 -5
-31 -20 -20 -21 -29 -15 -79 12 -102 13 -102 99 -102 l75 0 0 -280 0 -280 -32
14 c-67 29 -843 408 -854 417 -8 6 -13 315 -18 1061 -3 579 -9 1171 -13 1316
l-6 262 264 -5 c145 -3 355 -8 467 -11z m1004 -855 c2 -94 2 -208 0 -255 l-4
-83 -47 -23 c-97 -47 -173 -152 -191 -265 -25 -149 61 -311 197 -374 l50 -23
-4 -105 c-3 -58 -8 -179 -11 -269 -4 -89 -10 -162 -14 -162 -5 0 -122 0 -262
0 l-254 0 -7 53 c-4 28 -14 60 -22 69 -14 16 -12 20 17 44 29 25 32 32 27 68
-4 24 -14 48 -27 58 l-21 17 28 13 c24 11 28 20 31 61 3 40 -1 51 -21 69 l-25
22 29 18 c27 16 29 22 29 79 0 54 -3 64 -28 87 l-27 25 27 28 c41 40 34 120
-12 134 -22 7 -21 8 9 39 42 44 39 66 -15 116 -49 45 -49 44 9 76 36 19 35 54
-2 97 l-30 34 45 21 c57 28 58 54 4 129 -22 31 -40 60 -40 64 0 4 10 11 23 15
41 12 57 35 57 79 0 45 -10 61 -56 93 -27 18 -33 30 -36 67 l-3 45 150 3 c82
1 211 4 286 5 l136 2 5 -171z m-662 129 c0 -79 12 -109 51 -137 21 -14 38 -28
39 -32 0 -3 -22 -15 -50 -26 -64 -27 -66 -51 -7 -135 23 -33 38 -63 32 -65 -5
-2 -28 -14 -50 -26 -52 -29 -55 -55 -14 -101 17 -20 30 -38 28 -39 -2 -2 -23
-15 -46 -30 -56 -36 -55 -56 5 -103 26 -21 51 -42 57 -46 5 -5 -9 -26 -34 -52
-54 -55 -51 -74 13 -104 l49 -24 -59 -32 c-89 -49 -87 -90 7 -121 66 -22 66
-46 0 -79 -76 -39 -77 -66 -1 -116 l43 -28 -39 -16 c-52 -21 -66 -29 -77 -48
-16 -25 -1 -46 53 -73 l50 -25 -37 -33 c-48 -41 -53 -47 -53 -75 0 -15 11 -29
35 -43 23 -14 35 -28 35 -43 0 -22 -4 -23 -126 -29 -70 -4 -130 -4 -135 -1
-21 13 -6 42 36 72 65 45 61 90 -8 107 -39 10 -38 54 3 78 60 36 60 89 0 102
-26 6 -30 11 -30 39 0 27 7 37 38 57 26 17 38 33 40 52 3 25 -2 30 -37 44 -53
21 -52 41 4 82 63 45 61 93 -5 103 -39 5 -35 32 11 75 54 52 50 84 -13 105
-23 8 -43 19 -45 25 -2 6 14 21 36 34 22 12 43 29 46 36 7 21 -13 53 -41 63
-20 8 -24 16 -24 48 0 31 5 41 24 52 47 25 45 70 -4 90 -40 17 -38 32 10 64
60 39 54 85 -13 101 -24 6 -27 12 -27 49 0 35 5 44 31 61 61 40 60 74 -2 106
-30 15 -39 25 -39 44 l0 25 120 0 120 0 0 -32z m975 -365 c786 -298 1402 -819
1730 -1463 138 -272 230 -563 274 -870 30 -207 153 -1646 191 -2225 27 -421
31 -598 15 -687 -36 -209 -148 -445 -327 -686 -113 -153 -188 -235 -458 -502
-221 -219 -262 -264 -289 -319 -17 -35 -31 -75 -31 -88 0 -22 -3 -23 -82 -23
-116 0 -532 -27 -793 -50 -404 -37 -744 -85 -1065 -151 -404 -82 -466 -105
-422 -159 l18 -22 165 40 c510 127 1218 216 1986 252 l212 9 378 -74 c208 -42
389 -78 402 -81 l24 -5 -7 -432 c-4 -237 -8 -432 -9 -434 -2 -1 -1418 4 -3147
12 -1730 8 -3315 15 -3522 15 l-378 0 0 405 0 404 33 6 c17 3 205 25 417 50
1818 210 3086 320 3472 301 85 -5 135 -3 148 4 32 17 62 72 145 269 129 304
232 491 385 696 236 316 493 552 890 817 107 72 215 146 240 166 353 281 590
651 686 1067 40 178 39 331 -4 565 -120 643 -308 1162 -541 1490 -58 82 -179
210 -251 265 -53 40 -368 228 -471 280 l-49 25 0 190 c0 123 4 190 10 190 16
0 100 81 126 121 12 20 29 60 38 89 63 212 -84 431 -306 456 l-58 7 0 78 0 78
53 -16 c28 -8 106 -35 172 -60z m-88 -197 c202 -104 205 -387 5 -490 -15 -7
-60 -17 -100 -21 -69 -7 -77 -5 -136 24 -90 44 -143 119 -153 215 -13 125 60
236 186 283 46 17 156 11 198 -11z m-37 -760 l0 -164 -56 -4 -57 -3 7 95 c3
52 6 125 6 162 l0 67 38 4 c20 2 43 4 50 5 9 2 12 -37 12 -162z m-1495 -867
c649 -315 1181 -573 1182 -574 5 -3 -122 -285 -128 -285 -3 0 -541 261 -1195
580 -653 319 -1193 581 -1198 583 -13 4 132 267 147 267 6 0 543 -257 1192
-571z m-1125 -4 c0 -16 106 -191 162 -268 33 -45 116 -136 184 -203 l124 -120
-181 -280 c-99 -153 -182 -281 -184 -282 -2 -2 -34 21 -72 50 -161 129 -329
213 -468 234 -25 3 -45 8 -45 10 0 2 75 158 166 346 92 189 191 394 221 456
l54 114 19 -25 c11 -14 20 -28 20 -32z m678 -702 c100 -51 189 -85 340 -129
14 -4 16 -34 2 -34 -5 0 -89 -119 -187 -265 -97 -146 -179 -265 -182 -265 -3
0 -17 16 -30 35 -41 60 -147 152 -214 185 -37 18 -87 34 -120 37 -31 3 -57 8
-57 11 0 10 315 492 320 490 3 -2 60 -31 128 -65z m667 -172 c66 -4 176 -4
245 -1 69 4 126 7 127 6 1 0 5 -169 9 -374 l7 -374 -39 20 c-194 99 -473 111
-602 26 -13 -9 -26 -13 -30 -9 -5 5 25 443 45 664 l6 63 56 -7 c31 -3 110 -10
176 -14z m-1715 -118 c110 -36 204 -84 300 -153 47 -35 89 -66 93 -70 5 -4
-14 -22 -42 -39 -162 -104 -310 -97 -430 21 -61 60 -84 110 -85 183 -1 86 5
98 51 89 21 -4 72 -18 113 -31z m739 -260 c55 -26 154 -115 199 -180 l23 -32
-23 -12 c-33 -18 -178 -24 -222 -9 -73 24 -146 146 -146 245 l0 28 56 -7 c31
-3 82 -18 113 -33z m1135 -368 c32 -8 92 -29 132 -46 85 -36 85 -42 1 -80 -47
-22 -66 -24 -187 -24 -130 1 -139 2 -248 39 -65 22 -111 43 -109 50 5 17 86
58 142 73 61 15 187 10 269 -12z m1519 -732 l137 -6 0 -139 0 -139 -212 6
c-117 3 -282 8 -366 11 -177 7 -158 -12 -167 162 l-5 112 238 0 c131 0 300 -3
375 -7z m-1641 -370 l344 -6 -4 -141 c-2 -78 -7 -144 -11 -148 -3 -3 -554 -4
-1223 -1 l-1218 6 0 149 0 148 883 0 c486 0 1039 -3 1229 -7z m1342 -90 c3
-42 6 -107 6 -145 l0 -68 -59 0 -59 0 -4 138 c-2 75 -2 140 0 145 2 4 27 7 56
7 l53 0 7 -77z m266 -298 c0 -2 -23 -17 -50 -35 l-51 -33 -2052 12 c-1129 6
-2175 14 -2325 17 -270 6 -273 7 -255 26 17 19 47 19 2375 17 1297 -1 2358 -3
2358 -4z m-799 -151 l607 -6 -102 -81 c-55 -45 -171 -151 -256 -237 -211 -211
-365 -413 -506 -660 l-55 -97 -72 75 c-443 460 -1125 713 -1929 716 -195 1
-228 3 -229 16 0 8 -6 77 -13 154 l-12 138 981 -6 c539 -3 1253 -9 1586 -12z
m-1911 -399 c242 -30 505 -94 701 -170 102 -40 327 -149 346 -168 10 -9 11
-49 6 -158 l-6 -147 -604 -7 c-332 -4 -605 -6 -607 -4 -2 2 -10 154 -17 337
l-14 332 35 0 c20 0 92 -7 160 -15z"/>
<path d="M8195 3941 c-86 -26 -126 -44 -192 -89 -109 -74 -198 -191 -244 -322
-32 -88 -34 -295 -5 -380 100 -291 348 -463 642 -447 262 15 487 190 567 442
30 94 31 282 3 365 -68 201 -210 350 -396 417 -100 36 -282 43 -375 14z m270
-76 c257 -54 436 -270 436 -527 1 -151 -42 -265 -139 -370 -110 -119 -243
-178 -400 -178 -150 0 -265 45 -371 144 -116 109 -172 235 -173 392 -1 208
108 393 287 485 127 65 231 81 360 54z"/>
<path d="M8243 3670 c-134 -27 -237 -136 -264 -280 -10 -55 -9 -75 5 -130 40
-155 154 -249 311 -258 110 -6 179 21 256 97 76 77 103 146 97 256 -9 157
-101 270 -253 310 -64 16 -88 17 -152 5z m172 -104 c108 -50 169 -166 147
-275 -43 -203 -289 -277 -428 -129 -44 46 -65 91 -71 153 -20 189 180 332 352
251z"/>
</g>
</svg>
